<svg xmlns="http://www.w3.org/2000/svg" width="40" height="40" fill="none"><path fill="#9B66FF" d="m36.98 14.05-6.31 1.36L9.33 20l-7.35 1.58A2.52 2.52 0 0 0 0 24.05v13.42C0 38.87 1.12 40 2.5 40h35c1.38 0 2.5-1.13 2.5-2.53V16.53c0-.77-.34-1.49-.93-1.97a2.48 2.48 0 0 0-2.09-.5z"/><path fill="url(#a)" d="M28.59 0H11.58A2.54 2.54 0 0 0 9 2.5v25c0 1.38 1.15 2.5 2.58 2.5h16.84A2.54 2.54 0 0 0 31 27.5v-25A2.5 2.5 0 0 0 28.59 0z"/><path fill="url(#b)" d="M31 15.34V27.5c0 1.38-1.15 2.5-2.58 2.5H11.58A2.54 2.54 0 0 1 9 27.5v-7.43l.33-.07 21.34-4.59.33-.07z"/><defs><linearGradient id="a" x1="20" x2="20" y1="1.97" y2="17.6" gradientUnits="userSpaceOnUse"><stop stop-color="#11EFE3"/><stop offset=".33" stop-color="#15E8E2"/><stop offset=".74" stop-color="#1FD3E0"/><stop offset="1" stop-color="#21CFE0"/></linearGradient><linearGradient id="b" x1="31" x2="5.34" y1="22.67" y2="22.67" gradientUnits="userSpaceOnUse"><stop stop-color="#0048E5"/><stop offset=".64" stop-color="#625AF5"/><stop offset="1" stop-color="#8A62FC"/></linearGradient></defs></svg>
<svg xmlns="http://www.w3.org/2000/svg" width="40" height="40" fill="none"><path fill="#0073E6" fill-rule="evenodd" d="M2 17h33a3 3 0 0 1 3 3v17a3 3 0 0 1-3 3H5a3 3 0 0 1-3-3V17z" clip-rule="evenodd"/><path fill="url(#a)" d="M17.77.36 3.03 11.08A2.5 2.5 0 0 0 2 13.1v24.02c0 .99.67 2.02 1.68 2.59-.5-1.1-.34-2.36.67-3.03L19.72 25.5a2.5 2.5 0 0 0 1.03-2.02V1.88A1.88 1.88 0 0 0 17.77.36z"/><path fill="url(#b)" fill-rule="evenodd" d="M20.75 17v6.5c0 .8-.38 1.54-1.03 2.01L4.35 36.68c-1.01.67-1.17 1.92-.67 3.03v-.02a3.4 3.4 0 0 1-1.5-1.7A3 3 0 0 1 2 37V17h18.75z" clip-rule="evenodd"/><defs><linearGradient id="a" x1="11.38" x2="11.38" y1="2.61" y2="23.3" gradientUnits="userSpaceOnUse"><stop stop-color="#11EFE3"/><stop offset=".33" stop-color="#15E8E2"/><stop offset=".74" stop-color="#1FD3E0"/><stop offset="1" stop-color="#21CFE0"/></linearGradient><linearGradient id="b" x1="2" x2="22.91" y1="25.91" y2="25.91" gradientUnits="userSpaceOnUse"><stop stop-color="#0073E6"/><stop offset="1" stop-color="#00299C"/></linearGradient></defs></svg>
<svg xmlns="http://www.w3.org/2000/svg" width="40" height="40" fill="none"><path fill="#9A66FF" d="M24.87 4.46a1.26 1.26 0 0 0-1.8.2l-4.6 5.82L3.42 29.45c.27.22.54.45.78.7a9.42 9.42 0 0 1 1.13 1.32l.1.13a9.15 9.15 0 0 1 .8 1.43c.29.62.5 1.28.65 1.95a2.5 2.5 0 0 0 2.45 1.93H38.7a1.27 1.27 0 0 0 1.27-1.3 42.43 42.43 0 0 0-15.1-31.15z"/><path fill="url(#a)" d="M27.8 21.98A33.82 33.82 0 0 0 5.95 4.28a1.29 1.29 0 0 0-1.56.98L.1 25.4a2.54 2.54 0 0 0 1.4 2.88 9.48 9.48 0 0 1 2.72 1.87l.17.17c.35.36.67.74.96 1.15l.1.13a9.15 9.15 0 0 1 .8 1.43l20.94-9.31a1.29 1.29 0 0 0 .62-1.74z"/><path fill="url(#b)" d="m18.46 10.48.47.38a33.82 33.82 0 0 1 8.87 11.12 1.29 1.29 0 0 1-.62 1.74L6.25 33.03a9.15 9.15 0 0 0-.8-1.43l-.1-.13-.23-.3a8.5 8.5 0 0 0-.74-.85 9.7 9.7 0 0 0-.95-.86l15.03-18.98z"/><defs><linearGradient id="a" x1="13.98" x2="13.98" y1="4.24" y2="33.03" gradientUnits="userSpaceOnUse"><stop offset=".26" stop-color="#FF5091"/><stop offset=".91" stop-color="#E03071"/></linearGradient><linearGradient id="b" x1="15.68" x2="15.68" y1="10.48" y2="33.03" gradientUnits="userSpaceOnUse"><stop stop-color="#6E00F5"/><stop offset="1" stop-color="#9860FE"/></linearGradient></defs></svg>
<svg xmlns="http://www.w3.org/2000/svg" width="40" height="40" fill="none"><g clip-path="url(#a)"><path fill="#FB0" d="M20.51.3c1 0 1.92.57 2.36 1.47l8.22 16.42 8.65 17.31a2.64 2.64 0 0 1-1.65 3.73l-.17.04c-.12.03-.24.04-.36.05h-.18L20.5 35.99 9.94 18.19l8.2-16.42A2.64 2.64 0 0 1 20.52.3z"/><path fill="url(#b)" d="M20.51.3c1 0 1.92.57 2.36 1.47l8.22 16.42L20.5 35.98 3.65 39.33a2.64 2.64 0 0 1-2.37-3.83l8.66-17.3 8.2-16.43A2.64 2.64 0 0 1 20.52.3z"/><path fill="url(#c)" d="M20.51.3c1 0 1.92.57 2.36 1.47l8.22 16.42L20.5 35.98 9.94 18.19l8.2-16.42A2.64 2.64 0 0 1 20.34.3h.18z"/></g><defs><linearGradient id="b" x1="16.03" x2="15.94" y1="18.01" y2="39.33" gradientUnits="userSpaceOnUse"><stop stop-color="#FFD748"/><stop offset=".54" stop-color="#FFCD48"/><stop offset="1" stop-color="#FFCB48"/></linearGradient><linearGradient id="c" x1="20.51" x2="20.51" y1="34.72" y2="15.01" gradientUnits="userSpaceOnUse"><stop stop-color="#FFAD00"/><stop offset="1" stop-color="#FF7600"/></linearGradient><clipPath id="a"><path fill="#fff" d="M0 0h40v40H0z"/></clipPath></defs></svg>