<svg xmlns="http://www.w3.org/2000/svg" width="40" height="40" fill="none"><path fill="#9B66FF" d="m36.98 14.05-6.31 1.36L9.33 20l-7.35 1.58A2.52 2.52 0 0 0 0 24.05v13.42C0 38.87 1.12 40 2.5 40h35c1.38 0 2.5-1.13 2.5-2.53V16.53c0-.77-.34-1.49-.93-1.97a2.48 2.48 0 0 0-2.09-.5z"/><path fill="url(#a)" d="M28.59 0H11.58A2.54 2.54 0 0 0 9 2.5v25c0 1.38 1.15 2.5 2.58 2.5h16.84A2.54 2.54 0 0 0 31 27.5v-25A2.5 2.5 0 0 0 28.59 0z"/><path fill="url(#b)" d="M31 15.34V27.5c0 1.38-1.15 2.5-2.58 2.5H11.58A2.54 2.54 0 0 1 9 27.5v-7.43l.33-.07 21.34-4.59.33-.07z"/><defs><linearGradient id="a" x1="20" x2="20" y1="1.97" y2="17.6" gradientUnits="userSpaceOnUse"><stop stop-color="#11EFE3"/><stop offset=".33" stop-color="#15E8E2"/><stop offset=".74" stop-color="#1FD3E0"/><stop offset="1" stop-color="#21CFE0"/></linearGradient><linearGradient id="b" x1="31" x2="5.34" y1="22.67" y2="22.67" gradientUnits="userSpaceOnUse"><stop stop-color="#0048E5"/><stop offset=".64" stop-color="#625AF5"/><stop offset="1" stop-color="#8A62FC"/></linearGradient></defs></svg>

 